<svg xmlns="http://www.w3.org/2000/svg" width="1160" height="760" viewBox="0 0 1160 760" font-family="Segoe UI, Helvetica, Arial, sans-serif">
<rect x="0" y="0" width="1160" height="760" fill="white"/>
<text x="580.0" y="44.0" font-size="26.0" fill="#1B2A5B" text-anchor="middle" font-weight="bold" font-family="Segoe UI, Helvetica, Arial, sans-serif">A Sample Frame Is a Set of Rules</text>
<text x="580.0" y="74.0" font-size="15.0" fill="#8A93A6" text-anchor="middle" font-weight="normal" font-family="Consolas, Menlo, Courier New, monospace">add_rule(sfw, name, "filter", column, op, values)  —  structured: a column, an operator, and values</text>
<polygon points="50.0,104.0 138.0,104.0 138.0,136.0 94.0,142.0 50.0,136.0" fill="#9AA3B2"/>
<text x="94.0" y="124.1" font-size="11.5" fill="white" text-anchor="middle" font-weight="bold" font-family="Segoe UI, Helvetica, Arial, sans-serif">EIN2</text>
<polygon points="142.0,104.0 226.0,104.0 226.0,136.0 184.0,142.0 142.0,136.0" fill="#1B2A5B"/>
<text x="184.0" y="124.1" font-size="11.5" fill="white" text-anchor="middle" font-weight="bold" font-family="Segoe UI, Helvetica, Arial, sans-serif">TAX_YEAR</text>
<polygon points="230.0,104.0 346.0,104.0 346.0,136.0 288.0,142.0 230.0,136.0" fill="#1B2A5B"/>
<text x="288.0" y="124.1" font-size="11.5" fill="white" text-anchor="middle" font-weight="bold" font-family="Segoe UI, Helvetica, Arial, sans-serif">geo_state_abbr</text>
<polygon points="350.0,104.0 474.0,104.0 474.0,136.0 412.0,142.0 350.0,136.0" fill="#1B2A5B"/>
<text x="412.0" y="124.1" font-size="11.5" fill="white" text-anchor="middle" font-weight="bold" font-family="Segoe UI, Helvetica, Arial, sans-serif">subsection_code</text>
<polygon points="478.0,104.0 614.0,104.0 614.0,136.0 546.0,142.0 478.0,136.0" fill="#1B2A5B"/>
<text x="546.0" y="124.1" font-size="11.5" fill="white" text-anchor="middle" font-weight="bold" font-family="Segoe UI, Helvetica, Arial, sans-serif">F9_01_REV_TOT_CY</text>
<rect x="50.0" y="149.0" width="88.0" height="29.0" rx="4.0" fill="#F2F3F5"/>
<text x="94.0" y="168.0" font-size="11.5" fill="#1B2A5B" text-anchor="middle" font-weight="bold" font-family="Segoe UI, Helvetica, Arial, sans-serif">11-101</text>
<rect x="142.0" y="149.0" width="84.0" height="29.0" rx="0.0" fill="white" stroke="#E3E5EA" stroke-width="1.0"/>
<text x="184.0" y="168.0" font-size="12.0" fill="#1B2A5B" text-anchor="middle" font-weight="normal" font-family="Segoe UI, Helvetica, Arial, sans-serif">2019</text>
<rect x="230.0" y="149.0" width="116.0" height="29.0" rx="0.0" fill="white" stroke="#E3E5EA" stroke-width="1.0"/>
<text x="288.0" y="168.0" font-size="12.0" fill="#1B2A5B" text-anchor="middle" font-weight="normal" font-family="Segoe UI, Helvetica, Arial, sans-serif">GA</text>
<rect x="350.0" y="149.0" width="124.0" height="29.0" rx="0.0" fill="white" stroke="#E3E5EA" stroke-width="1.0"/>
<text x="412.0" y="168.0" font-size="12.0" fill="#1B2A5B" text-anchor="middle" font-weight="normal" font-family="Segoe UI, Helvetica, Arial, sans-serif">3</text>
<rect x="478.0" y="149.0" width="136.0" height="29.0" rx="0.0" fill="white" stroke="#E3E5EA" stroke-width="1.0"/>
<text x="546.0" y="168.0" font-size="12.0" fill="#1B2A5B" text-anchor="middle" font-weight="normal" font-family="Segoe UI, Helvetica, Arial, sans-serif">482,120</text>
<path d="M 626.1 164.3 L 629.0 167.2 L 634.2 160.5" fill="none" stroke="#2E9E44" stroke-width="2.2" stroke-linecap="round" stroke-linejoin="round"/>
<rect x="50.0" y="181.0" width="88.0" height="29.0" rx="4.0" fill="#F2F3F5"/>
<text x="94.0" y="200.0" font-size="11.5" fill="#1B2A5B" text-anchor="middle" font-weight="bold" font-family="Segoe UI, Helvetica, Arial, sans-serif">11-102</text>
<rect x="142.0" y="181.0" width="84.0" height="29.0" rx="0.0" fill="white" stroke="#E3E5EA" stroke-width="1.0"/>
<text x="184.0" y="200.0" font-size="12.0" fill="#1B2A5B" text-anchor="middle" font-weight="normal" font-family="Segoe UI, Helvetica, Arial, sans-serif">2020</text>
<rect x="230.0" y="181.0" width="116.0" height="29.0" rx="0.0" fill="white" stroke="#E3E5EA" stroke-width="1.0"/>
<text x="288.0" y="200.0" font-size="12.0" fill="#1B2A5B" text-anchor="middle" font-weight="normal" font-family="Segoe UI, Helvetica, Arial, sans-serif">GA</text>
<rect x="350.0" y="181.0" width="124.0" height="29.0" rx="0.0" fill="white" stroke="#E3E5EA" stroke-width="1.0"/>
<text x="412.0" y="200.0" font-size="12.0" fill="#1B2A5B" text-anchor="middle" font-weight="normal" font-family="Segoe UI, Helvetica, Arial, sans-serif">3</text>
<rect x="478.0" y="181.0" width="136.0" height="29.0" rx="0.0" fill="white" stroke="#E3E5EA" stroke-width="1.0"/>
<text x="546.0" y="200.0" font-size="12.0" fill="#1B2A5B" text-anchor="middle" font-weight="normal" font-family="Segoe UI, Helvetica, Arial, sans-serif">1,250,900</text>
<path d="M 626.1 196.3 L 629.0 199.2 L 634.2 192.5" fill="none" stroke="#2E9E44" stroke-width="2.2" stroke-linecap="round" stroke-linejoin="round"/>
<rect x="50.0" y="213.0" width="88.0" height="29.0" rx="4.0" fill="#F2F3F5"/>
<text x="94.0" y="232.0" font-size="11.5" fill="#1B2A5B" text-anchor="middle" font-weight="bold" font-family="Segoe UI, Helvetica, Arial, sans-serif">22-201</text>
<rect x="142.0" y="213.0" width="84.0" height="29.0" rx="0.0" fill="white" stroke="#E3E5EA" stroke-width="1.0"/>
<text x="184.0" y="232.0" font-size="12.0" fill="#1B2A5B" text-anchor="middle" font-weight="normal" font-family="Segoe UI, Helvetica, Arial, sans-serif">2020</text>
<rect x="230.0" y="213.0" width="116.0" height="29.0" rx="0.0" fill="white" stroke="#E3E5EA" stroke-width="1.0"/>
<text x="288.0" y="232.0" font-size="12.0" fill="#1B2A5B" text-anchor="middle" font-weight="normal" font-family="Segoe UI, Helvetica, Arial, sans-serif">FL</text>
<rect x="350.0" y="213.0" width="124.0" height="29.0" rx="0.0" fill="white" stroke="#E3E5EA" stroke-width="1.0"/>
<text x="412.0" y="232.0" font-size="12.0" fill="#1B2A5B" text-anchor="middle" font-weight="normal" font-family="Segoe UI, Helvetica, Arial, sans-serif">3</text>
<rect x="478.0" y="213.0" width="136.0" height="29.0" rx="0.0" fill="white" stroke="#E3E5EA" stroke-width="1.0"/>
<text x="546.0" y="232.0" font-size="12.0" fill="#1B2A5B" text-anchor="middle" font-weight="normal" font-family="Segoe UI, Helvetica, Arial, sans-serif">310,450</text>
<rect x="50.0" y="245.0" width="88.0" height="29.0" rx="4.0" fill="#F2F3F5"/>
<text x="94.0" y="264.0" font-size="11.5" fill="#1B2A5B" text-anchor="middle" font-weight="bold" font-family="Segoe UI, Helvetica, Arial, sans-serif">22-202</text>
<rect x="142.0" y="245.0" width="84.0" height="29.0" rx="0.0" fill="white" stroke="#E3E5EA" stroke-width="1.0"/>
<text x="184.0" y="264.0" font-size="12.0" fill="#1B2A5B" text-anchor="middle" font-weight="normal" font-family="Segoe UI, Helvetica, Arial, sans-serif">2019</text>
<rect x="230.0" y="245.0" width="116.0" height="29.0" rx="0.0" fill="white" stroke="#E3E5EA" stroke-width="1.0"/>
<text x="288.0" y="264.0" font-size="12.0" fill="#1B2A5B" text-anchor="middle" font-weight="normal" font-family="Segoe UI, Helvetica, Arial, sans-serif">AL</text>
<rect x="350.0" y="245.0" width="124.0" height="29.0" rx="0.0" fill="white" stroke="#E3E5EA" stroke-width="1.0"/>
<text x="412.0" y="264.0" font-size="12.0" fill="#1B2A5B" text-anchor="middle" font-weight="normal" font-family="Segoe UI, Helvetica, Arial, sans-serif">3</text>
<rect x="478.0" y="245.0" width="136.0" height="29.0" rx="0.0" fill="white" stroke="#E3E5EA" stroke-width="1.0"/>
<text x="546.0" y="264.0" font-size="12.0" fill="#1B2A5B" text-anchor="middle" font-weight="normal" font-family="Segoe UI, Helvetica, Arial, sans-serif">88,700</text>
<rect x="50.0" y="277.0" width="88.0" height="29.0" rx="4.0" fill="#F2F3F5"/>
<text x="94.0" y="296.0" font-size="11.5" fill="#1B2A5B" text-anchor="middle" font-weight="bold" font-family="Segoe UI, Helvetica, Arial, sans-serif">22-203</text>
<rect x="142.0" y="277.0" width="84.0" height="29.0" rx="0.0" fill="white" stroke="#E3E5EA" stroke-width="1.0"/>
<text x="184.0" y="296.0" font-size="12.0" fill="#1B2A5B" text-anchor="middle" font-weight="normal" font-family="Segoe UI, Helvetica, Arial, sans-serif">2021</text>
<rect x="230.0" y="277.0" width="116.0" height="29.0" rx="0.0" fill="white" stroke="#E3E5EA" stroke-width="1.0"/>
<text x="288.0" y="296.0" font-size="12.0" fill="#1B2A5B" text-anchor="middle" font-weight="normal" font-family="Segoe UI, Helvetica, Arial, sans-serif">NC</text>
<rect x="350.0" y="277.0" width="124.0" height="29.0" rx="0.0" fill="white" stroke="#E3E5EA" stroke-width="1.0"/>
<text x="412.0" y="296.0" font-size="12.0" fill="#1B2A5B" text-anchor="middle" font-weight="normal" font-family="Segoe UI, Helvetica, Arial, sans-serif">3</text>
<rect x="478.0" y="277.0" width="136.0" height="29.0" rx="0.0" fill="white" stroke="#E3E5EA" stroke-width="1.0"/>
<text x="546.0" y="296.0" font-size="12.0" fill="#1B2A5B" text-anchor="middle" font-weight="normal" font-family="Segoe UI, Helvetica, Arial, sans-serif">5,102,000</text>
<rect x="50.0" y="309.0" width="88.0" height="29.0" rx="4.0" fill="#F2F3F5"/>
<text x="94.0" y="328.0" font-size="11.5" fill="#1B2A5B" text-anchor="middle" font-weight="bold" font-family="Segoe UI, Helvetica, Arial, sans-serif">11-103</text>
<rect x="142.0" y="309.0" width="84.0" height="29.0" rx="0.0" fill="white" stroke="#E3E5EA" stroke-width="1.0"/>
<text x="184.0" y="328.0" font-size="12.0" fill="#1B2A5B" text-anchor="middle" font-weight="normal" font-family="Segoe UI, Helvetica, Arial, sans-serif">2021</text>
<rect x="230.0" y="309.0" width="116.0" height="29.0" rx="0.0" fill="white" stroke="#E3E5EA" stroke-width="1.0"/>
<text x="288.0" y="328.0" font-size="12.0" fill="#1B2A5B" text-anchor="middle" font-weight="normal" font-family="Segoe UI, Helvetica, Arial, sans-serif">GA</text>
<rect x="350.0" y="309.0" width="124.0" height="29.0" rx="0.0" fill="white" stroke="#E3E5EA" stroke-width="1.0"/>
<text x="412.0" y="328.0" font-size="12.0" fill="#1B2A5B" text-anchor="middle" font-weight="normal" font-family="Segoe UI, Helvetica, Arial, sans-serif">3</text>
<rect x="478.0" y="309.0" width="136.0" height="29.0" rx="0.0" fill="white" stroke="#E3E5EA" stroke-width="1.0"/>
<text x="546.0" y="328.0" font-size="12.0" fill="#1B2A5B" text-anchor="middle" font-weight="normal" font-family="Segoe UI, Helvetica, Arial, sans-serif">64,300</text>
<path d="M 626.1 324.4 L 629.0 327.1 L 634.2 320.5" fill="none" stroke="#2E9E44" stroke-width="2.2" stroke-linecap="round" stroke-linejoin="round"/>
<rect x="50.0" y="341.0" width="88.0" height="29.0" rx="4.0" fill="#F2F3F5"/>
<text x="94.0" y="360.0" font-size="11.5" fill="#1B2A5B" text-anchor="middle" font-weight="bold" font-family="Segoe UI, Helvetica, Arial, sans-serif">33-301</text>
<rect x="142.0" y="341.0" width="84.0" height="29.0" rx="0.0" fill="white" stroke="#E3E5EA" stroke-width="1.0"/>
<text x="184.0" y="360.0" font-size="12.0" fill="#1B2A5B" text-anchor="middle" font-weight="normal" font-family="Segoe UI, Helvetica, Arial, sans-serif">2020</text>
<rect x="230.0" y="341.0" width="116.0" height="29.0" rx="0.0" fill="white" stroke="#E3E5EA" stroke-width="1.0"/>
<text x="288.0" y="360.0" font-size="12.0" fill="#1B2A5B" text-anchor="middle" font-weight="normal" font-family="Segoe UI, Helvetica, Arial, sans-serif">GA</text>
<rect x="350.0" y="341.0" width="124.0" height="29.0" rx="0.0" fill="white" stroke="#E3E5EA" stroke-width="1.0"/>
<text x="412.0" y="360.0" font-size="12.0" fill="#1B2A5B" text-anchor="middle" font-weight="normal" font-family="Segoe UI, Helvetica, Arial, sans-serif">4</text>
<rect x="478.0" y="341.0" width="136.0" height="29.0" rx="0.0" fill="white" stroke="#E3E5EA" stroke-width="1.0"/>
<text x="546.0" y="360.0" font-size="12.0" fill="#1B2A5B" text-anchor="middle" font-weight="normal" font-family="Segoe UI, Helvetica, Arial, sans-serif">720,150</text>
<rect x="50.0" y="373.0" width="88.0" height="29.0" rx="4.0" fill="#F2F3F5"/>
<text x="94.0" y="392.0" font-size="11.5" fill="#1B2A5B" text-anchor="middle" font-weight="bold" font-family="Segoe UI, Helvetica, Arial, sans-serif">33-302</text>
<rect x="142.0" y="373.0" width="84.0" height="29.0" rx="0.0" fill="white" stroke="#E3E5EA" stroke-width="1.0"/>
<text x="184.0" y="392.0" font-size="12.0" fill="#1B2A5B" text-anchor="middle" font-weight="normal" font-family="Segoe UI, Helvetica, Arial, sans-serif">2019</text>
<rect x="230.0" y="373.0" width="116.0" height="29.0" rx="0.0" fill="white" stroke="#E3E5EA" stroke-width="1.0"/>
<text x="288.0" y="392.0" font-size="12.0" fill="#1B2A5B" text-anchor="middle" font-weight="normal" font-family="Segoe UI, Helvetica, Arial, sans-serif">GA</text>
<rect x="350.0" y="373.0" width="124.0" height="29.0" rx="0.0" fill="white" stroke="#E3E5EA" stroke-width="1.0"/>
<text x="412.0" y="392.0" font-size="12.0" fill="#1B2A5B" text-anchor="middle" font-weight="normal" font-family="Segoe UI, Helvetica, Arial, sans-serif">6</text>
<rect x="478.0" y="373.0" width="136.0" height="29.0" rx="0.0" fill="white" stroke="#E3E5EA" stroke-width="1.0"/>
<text x="546.0" y="392.0" font-size="12.0" fill="#1B2A5B" text-anchor="middle" font-weight="normal" font-family="Segoe UI, Helvetica, Arial, sans-serif">15,800</text>
<rect x="50.0" y="405.0" width="88.0" height="29.0" rx="4.0" fill="#F2F3F5"/>
<text x="94.0" y="424.0" font-size="11.5" fill="#1B2A5B" text-anchor="middle" font-weight="bold" font-family="Segoe UI, Helvetica, Arial, sans-serif">33-303</text>
<rect x="142.0" y="405.0" width="84.0" height="29.0" rx="0.0" fill="white" stroke="#E3E5EA" stroke-width="1.0"/>
<text x="184.0" y="424.0" font-size="12.0" fill="#1B2A5B" text-anchor="middle" font-weight="normal" font-family="Segoe UI, Helvetica, Arial, sans-serif">2021</text>
<rect x="230.0" y="405.0" width="116.0" height="29.0" rx="0.0" fill="white" stroke="#E3E5EA" stroke-width="1.0"/>
<text x="288.0" y="424.0" font-size="12.0" fill="#1B2A5B" text-anchor="middle" font-weight="normal" font-family="Segoe UI, Helvetica, Arial, sans-serif">GA</text>
<rect x="350.0" y="405.0" width="124.0" height="29.0" rx="0.0" fill="white" stroke="#E3E5EA" stroke-width="1.0"/>
<text x="412.0" y="424.0" font-size="12.0" fill="#1B2A5B" text-anchor="middle" font-weight="normal" font-family="Segoe UI, Helvetica, Arial, sans-serif">19</text>
<rect x="478.0" y="405.0" width="136.0" height="29.0" rx="0.0" fill="white" stroke="#E3E5EA" stroke-width="1.0"/>
<text x="546.0" y="424.0" font-size="12.0" fill="#1B2A5B" text-anchor="middle" font-weight="normal" font-family="Segoe UI, Helvetica, Arial, sans-serif">232,400</text>
<rect x="50.0" y="437.0" width="88.0" height="29.0" rx="4.0" fill="#F2F3F5"/>
<text x="94.0" y="456.0" font-size="11.5" fill="#1B2A5B" text-anchor="middle" font-weight="bold" font-family="Segoe UI, Helvetica, Arial, sans-serif">11-104</text>
<rect x="142.0" y="437.0" width="84.0" height="29.0" rx="0.0" fill="white" stroke="#E3E5EA" stroke-width="1.0"/>
<text x="184.0" y="456.0" font-size="12.0" fill="#1B2A5B" text-anchor="middle" font-weight="normal" font-family="Segoe UI, Helvetica, Arial, sans-serif">2019</text>
<rect x="230.0" y="437.0" width="116.0" height="29.0" rx="0.0" fill="white" stroke="#E3E5EA" stroke-width="1.0"/>
<text x="288.0" y="456.0" font-size="12.0" fill="#1B2A5B" text-anchor="middle" font-weight="normal" font-family="Segoe UI, Helvetica, Arial, sans-serif">GA</text>
<rect x="350.0" y="437.0" width="124.0" height="29.0" rx="0.0" fill="white" stroke="#E3E5EA" stroke-width="1.0"/>
<text x="412.0" y="456.0" font-size="12.0" fill="#1B2A5B" text-anchor="middle" font-weight="normal" font-family="Segoe UI, Helvetica, Arial, sans-serif">3</text>
<rect x="478.0" y="437.0" width="136.0" height="29.0" rx="0.0" fill="white" stroke="#E3E5EA" stroke-width="1.0"/>
<text x="546.0" y="456.0" font-size="12.0" fill="#1B2A5B" text-anchor="middle" font-weight="normal" font-family="Segoe UI, Helvetica, Arial, sans-serif">976,000</text>
<path d="M 626.1 452.4 L 629.0 455.1 L 634.2 448.5" fill="none" stroke="#2E9E44" stroke-width="2.2" stroke-linecap="round" stroke-linejoin="round"/>
<rect x="50.0" y="469.0" width="88.0" height="29.0" rx="4.0" fill="#F2F3F5"/>
<text x="94.0" y="488.0" font-size="11.5" fill="#1B2A5B" text-anchor="middle" font-weight="bold" font-family="Segoe UI, Helvetica, Arial, sans-serif">44-401</text>
<rect x="142.0" y="469.0" width="84.0" height="29.0" rx="0.0" fill="white" stroke="#E3E5EA" stroke-width="1.0"/>
<text x="184.0" y="488.0" font-size="12.0" fill="#1B2A5B" text-anchor="middle" font-weight="normal" font-family="Segoe UI, Helvetica, Arial, sans-serif">2017</text>
<rect x="230.0" y="469.0" width="116.0" height="29.0" rx="0.0" fill="white" stroke="#E3E5EA" stroke-width="1.0"/>
<text x="288.0" y="488.0" font-size="12.0" fill="#1B2A5B" text-anchor="middle" font-weight="normal" font-family="Segoe UI, Helvetica, Arial, sans-serif">GA</text>
<rect x="350.0" y="469.0" width="124.0" height="29.0" rx="0.0" fill="white" stroke="#E3E5EA" stroke-width="1.0"/>
<text x="412.0" y="488.0" font-size="12.0" fill="#1B2A5B" text-anchor="middle" font-weight="normal" font-family="Segoe UI, Helvetica, Arial, sans-serif">3</text>
<rect x="478.0" y="469.0" width="136.0" height="29.0" rx="0.0" fill="white" stroke="#E3E5EA" stroke-width="1.0"/>
<text x="546.0" y="488.0" font-size="12.0" fill="#1B2A5B" text-anchor="middle" font-weight="normal" font-family="Segoe UI, Helvetica, Arial, sans-serif">405,600</text>
<rect x="50.0" y="501.0" width="88.0" height="29.0" rx="4.0" fill="#F2F3F5"/>
<text x="94.0" y="520.0" font-size="11.5" fill="#1B2A5B" text-anchor="middle" font-weight="bold" font-family="Segoe UI, Helvetica, Arial, sans-serif">44-402</text>
<rect x="142.0" y="501.0" width="84.0" height="29.0" rx="0.0" fill="white" stroke="#E3E5EA" stroke-width="1.0"/>
<text x="184.0" y="520.0" font-size="12.0" fill="#1B2A5B" text-anchor="middle" font-weight="normal" font-family="Segoe UI, Helvetica, Arial, sans-serif">2018</text>
<rect x="230.0" y="501.0" width="116.0" height="29.0" rx="0.0" fill="white" stroke="#E3E5EA" stroke-width="1.0"/>
<text x="288.0" y="520.0" font-size="12.0" fill="#1B2A5B" text-anchor="middle" font-weight="normal" font-family="Segoe UI, Helvetica, Arial, sans-serif">GA</text>
<rect x="350.0" y="501.0" width="124.0" height="29.0" rx="0.0" fill="white" stroke="#E3E5EA" stroke-width="1.0"/>
<text x="412.0" y="520.0" font-size="12.0" fill="#1B2A5B" text-anchor="middle" font-weight="normal" font-family="Segoe UI, Helvetica, Arial, sans-serif">3</text>
<rect x="478.0" y="501.0" width="136.0" height="29.0" rx="0.0" fill="white" stroke="#E3E5EA" stroke-width="1.0"/>
<text x="546.0" y="520.0" font-size="12.0" fill="#1B2A5B" text-anchor="middle" font-weight="normal" font-family="Segoe UI, Helvetica, Arial, sans-serif">359,100</text>
<rect x="50.0" y="533.0" width="88.0" height="29.0" rx="4.0" fill="#F2F3F5"/>
<text x="94.0" y="552.0" font-size="11.5" fill="#1B2A5B" text-anchor="middle" font-weight="bold" font-family="Segoe UI, Helvetica, Arial, sans-serif">44-403</text>
<rect x="142.0" y="533.0" width="84.0" height="29.0" rx="0.0" fill="white" stroke="#E3E5EA" stroke-width="1.0"/>
<text x="184.0" y="552.0" font-size="12.0" fill="#1B2A5B" text-anchor="middle" font-weight="normal" font-family="Segoe UI, Helvetica, Arial, sans-serif">2023</text>
<rect x="230.0" y="533.0" width="116.0" height="29.0" rx="0.0" fill="white" stroke="#E3E5EA" stroke-width="1.0"/>
<text x="288.0" y="552.0" font-size="12.0" fill="#1B2A5B" text-anchor="middle" font-weight="normal" font-family="Segoe UI, Helvetica, Arial, sans-serif">GA</text>
<rect x="350.0" y="533.0" width="124.0" height="29.0" rx="0.0" fill="white" stroke="#E3E5EA" stroke-width="1.0"/>
<text x="412.0" y="552.0" font-size="12.0" fill="#1B2A5B" text-anchor="middle" font-weight="normal" font-family="Segoe UI, Helvetica, Arial, sans-serif">3</text>
<rect x="478.0" y="533.0" width="136.0" height="29.0" rx="0.0" fill="white" stroke="#E3E5EA" stroke-width="1.0"/>
<text x="546.0" y="552.0" font-size="12.0" fill="#1B2A5B" text-anchor="middle" font-weight="normal" font-family="Segoe UI, Helvetica, Arial, sans-serif">512,750</text>
<rect x="50.0" y="565.0" width="88.0" height="29.0" rx="4.0" fill="#F2F3F5"/>
<text x="94.0" y="584.0" font-size="11.5" fill="#1B2A5B" text-anchor="middle" font-weight="bold" font-family="Segoe UI, Helvetica, Arial, sans-serif">55-501</text>
<rect x="142.0" y="565.0" width="84.0" height="29.0" rx="0.0" fill="white" stroke="#E3E5EA" stroke-width="1.0"/>
<text x="184.0" y="584.0" font-size="12.0" fill="#1B2A5B" text-anchor="middle" font-weight="normal" font-family="Segoe UI, Helvetica, Arial, sans-serif">2020</text>
<rect x="230.0" y="565.0" width="116.0" height="29.0" rx="0.0" fill="white" stroke="#E3E5EA" stroke-width="1.0"/>
<text x="288.0" y="584.0" font-size="12.0" fill="#1B2A5B" text-anchor="middle" font-weight="normal" font-family="Segoe UI, Helvetica, Arial, sans-serif">GA</text>
<rect x="350.0" y="565.0" width="124.0" height="29.0" rx="0.0" fill="white" stroke="#E3E5EA" stroke-width="1.0"/>
<text x="412.0" y="584.0" font-size="12.0" fill="#1B2A5B" text-anchor="middle" font-weight="normal" font-family="Segoe UI, Helvetica, Arial, sans-serif">3</text>
<rect x="478.0" y="565.0" width="136.0" height="29.0" rx="0.0" fill="white" stroke="#E3E5EA" stroke-width="1.0"/>
<text x="546.0" y="584.0" font-size="12.0" fill="#1B2A5B" text-anchor="middle" font-weight="normal" font-family="Segoe UI, Helvetica, Arial, sans-serif">0</text>
<rect x="50.0" y="597.0" width="88.0" height="29.0" rx="4.0" fill="#F2F3F5"/>
<text x="94.0" y="616.0" font-size="11.5" fill="#1B2A5B" text-anchor="middle" font-weight="bold" font-family="Segoe UI, Helvetica, Arial, sans-serif">55-502</text>
<rect x="142.0" y="597.0" width="84.0" height="29.0" rx="0.0" fill="white" stroke="#E3E5EA" stroke-width="1.0"/>
<text x="184.0" y="616.0" font-size="12.0" fill="#1B2A5B" text-anchor="middle" font-weight="normal" font-family="Segoe UI, Helvetica, Arial, sans-serif">2021</text>
<rect x="230.0" y="597.0" width="116.0" height="29.0" rx="0.0" fill="white" stroke="#E3E5EA" stroke-width="1.0"/>
<text x="288.0" y="616.0" font-size="12.0" fill="#1B2A5B" text-anchor="middle" font-weight="normal" font-family="Segoe UI, Helvetica, Arial, sans-serif">GA</text>
<rect x="350.0" y="597.0" width="124.0" height="29.0" rx="0.0" fill="white" stroke="#E3E5EA" stroke-width="1.0"/>
<text x="412.0" y="616.0" font-size="12.0" fill="#1B2A5B" text-anchor="middle" font-weight="normal" font-family="Segoe UI, Helvetica, Arial, sans-serif">3</text>
<rect x="478.0" y="597.0" width="136.0" height="29.0" rx="0.0" fill="white" stroke="#E3E5EA" stroke-width="1.0"/>
<text x="546.0" y="616.0" font-size="12.0" fill="#1B2A5B" text-anchor="middle" font-weight="normal" font-family="Segoe UI, Helvetica, Arial, sans-serif">-12,500</text>
<rect x="50.0" y="629.0" width="88.0" height="29.0" rx="4.0" fill="#F2F3F5"/>
<text x="94.0" y="648.0" font-size="11.5" fill="#1B2A5B" text-anchor="middle" font-weight="bold" font-family="Segoe UI, Helvetica, Arial, sans-serif">11-105</text>
<rect x="142.0" y="629.0" width="84.0" height="29.0" rx="0.0" fill="white" stroke="#E3E5EA" stroke-width="1.0"/>
<text x="184.0" y="648.0" font-size="12.0" fill="#1B2A5B" text-anchor="middle" font-weight="normal" font-family="Segoe UI, Helvetica, Arial, sans-serif">2020</text>
<rect x="230.0" y="629.0" width="116.0" height="29.0" rx="0.0" fill="white" stroke="#E3E5EA" stroke-width="1.0"/>
<text x="288.0" y="648.0" font-size="12.0" fill="#1B2A5B" text-anchor="middle" font-weight="normal" font-family="Segoe UI, Helvetica, Arial, sans-serif">GA</text>
<rect x="350.0" y="629.0" width="124.0" height="29.0" rx="0.0" fill="white" stroke="#E3E5EA" stroke-width="1.0"/>
<text x="412.0" y="648.0" font-size="12.0" fill="#1B2A5B" text-anchor="middle" font-weight="normal" font-family="Segoe UI, Helvetica, Arial, sans-serif">3</text>
<rect x="478.0" y="629.0" width="136.0" height="29.0" rx="0.0" fill="white" stroke="#E3E5EA" stroke-width="1.0"/>
<text x="546.0" y="648.0" font-size="12.0" fill="#1B2A5B" text-anchor="middle" font-weight="normal" font-family="Segoe UI, Helvetica, Arial, sans-serif">3,870,220</text>
<path d="M 626.1 644.4 L 629.0 647.1 L 634.2 640.5" fill="none" stroke="#2E9E44" stroke-width="2.2" stroke-linecap="round" stroke-linejoin="round"/>
<rect x="42.0" y="212.0" width="1078.0" height="96.0" rx="8.0" fill="#0E87BE" opacity="0.10"/>
<rect x="42.0" y="212.0" width="1078.0" height="96.0" rx="8.0" fill="none" stroke="#0E87BE" stroke-width="1.8"/>
<rect x="662.0" y="248.0" width="57.0" height="24.0" rx="12.0" fill="#0E87BE"/>
<text x="690.5" y="264.0" font-size="11.5" fill="white" text-anchor="middle" font-weight="bold" font-family="Segoe UI, Helvetica, Arial, sans-serif">state</text>
<text x="733.0" y="264.5" font-size="13.0" fill="#1B2A5B" text-anchor="start" font-weight="normal" font-family="Consolas, Menlo, Courier New, monospace">filter:  geo_state_abbr in "GA"</text>
<text x="1108.0" y="264.5" font-size="12.5" fill="#D64545" text-anchor="end" font-weight="bold" font-family="Segoe UI, Helvetica, Arial, sans-serif">−3 rows</text>
<rect x="42.0" y="340.0" width="1078.0" height="96.0" rx="8.0" fill="#5BAE2E" opacity="0.10"/>
<rect x="42.0" y="340.0" width="1078.0" height="96.0" rx="8.0" fill="none" stroke="#5BAE2E" stroke-width="1.8"/>
<rect x="662.0" y="376.0" width="57.0" height="24.0" rx="12.0" fill="#5BAE2E"/>
<text x="690.5" y="392.0" font-size="11.5" fill="white" text-anchor="middle" font-weight="bold" font-family="Segoe UI, Helvetica, Arial, sans-serif">501c3</text>
<text x="733.0" y="392.5" font-size="13.0" fill="#1B2A5B" text-anchor="start" font-weight="normal" font-family="Consolas, Menlo, Courier New, monospace">filter:  subsection_code in "3"</text>
<text x="1108.0" y="392.5" font-size="12.5" fill="#D64545" text-anchor="end" font-weight="bold" font-family="Segoe UI, Helvetica, Arial, sans-serif">−3 rows</text>
<rect x="42.0" y="468.0" width="1078.0" height="96.0" rx="8.0" fill="#E9A800" opacity="0.10"/>
<rect x="42.0" y="468.0" width="1078.0" height="96.0" rx="8.0" fill="none" stroke="#E9A800" stroke-width="1.8"/>
<rect x="662.0" y="504.0" width="57.0" height="24.0" rx="12.0" fill="#E9A800"/>
<text x="690.5" y="520.0" font-size="11.5" fill="white" text-anchor="middle" font-weight="bold" font-family="Segoe UI, Helvetica, Arial, sans-serif">years</text>
<text x="733.0" y="520.5" font-size="13.0" fill="#1B2A5B" text-anchor="start" font-weight="normal" font-family="Consolas, Menlo, Courier New, monospace">filter:  TAX_YEAR in 2019:2021</text>
<text x="1108.0" y="520.5" font-size="12.5" fill="#D64545" text-anchor="end" font-weight="bold" font-family="Segoe UI, Helvetica, Arial, sans-serif">−3 rows</text>
<rect x="42.0" y="564.0" width="1078.0" height="64.0" rx="8.0" fill="#6B6EC6" opacity="0.10"/>
<rect x="42.0" y="564.0" width="1078.0" height="64.0" rx="8.0" fill="none" stroke="#6B6EC6" stroke-width="1.8"/>
<rect x="662.0" y="584.0" width="134.0" height="24.0" rx="12.0" fill="#6B6EC6"/>
<text x="729.0" y="600.0" font-size="11.5" fill="white" text-anchor="middle" font-weight="bold" font-family="Segoe UI, Helvetica, Arial, sans-serif">revenue positive</text>
<text x="810.0" y="600.5" font-size="13.0" fill="#1B2A5B" text-anchor="start" font-weight="normal" font-family="Consolas, Menlo, Courier New, monospace">filter:  F9_01_REV_TOT_CY &gt; 0</text>
<text x="1108.0" y="600.5" font-size="12.5" fill="#D64545" text-anchor="end" font-weight="bold" font-family="Segoe UI, Helvetica, Arial, sans-serif">−2 rows</text>
<path d="M 56.1 686.4 L 59.0 689.1 L 64.2 682.5" fill="none" stroke="#2E9E44" stroke-width="2.2" stroke-linecap="round" stroke-linejoin="round"/>
<text x="76.0" y="690.0" font-size="13.0" fill="#8A93A6" text-anchor="start" font-weight="normal" font-family="Segoe UI, Helvetica, Arial, sans-serif">rows in no strip satisfy every rule — 5 of 16 survive.   Most rules are filters: each names exactly the rows it removes.</text>
</svg>
